#VRML V2.0 utf8

# This file is converted using vrml1to2 version 1.6
# This converter is based on Final VRML2.0 - August 4, 1996.
# This converter is provided by Sony.

Transform {
	children [
		Shape {
			appearance Appearance {
				material Material {
					diffuseColor  1 1 1
					specularColor 1 1 1
				}
			}
			geometry IndexedFaceSet {
				coord Coordinate {
					point [
						1.00092 -0.000427 -1,
						1.00092 -0.000427 1,
						0 -1 1,
						0 -1 -1,
						0 1 -1,
						0 1 1,
						-2 1 -1,
						-2 -1 -1,
						-2 -1 1,
						-2 1 1
					]
				}
				coordIndex [
					0, 1, 2, 3, -1,
					0, 4, 5, 1, -1,
					6, 7, 8, 9, -1,
					5, 4, 6, 9, -1,
					7, 3, 2, 8, -1,
					6, 4, 7, -1,
					7, 4, 0, -1,
					7, 0, 3, -1,
					8, 5, 9, -1,
					8, 1, 5, -1,
					8, 2, 1, -1
				]
				normalPerVertex FALSE
				solid           FALSE
				creaseAngle     0.5
			}
		}
	]
}
