#VRML V2.0 utf8

# This file is converted using vrml1to2 version 1.6
# This converter is based on Final VRML2.0 - August 4, 1996.
# This converter is provided by Sony.

Transform {
	children [
		Shape {
			appearance Appearance {
				material Material {
					diffuseColor  1 1 1
					specularColor 1 1 1
				}
			}
			geometry IndexedFaceSet {
				coord Coordinate {
					point [
						0 0.314315 -0.462418,
						0.400466 0.314315 -0.231209,
						0.533645 0.063631 -0.461881,
						0.133179 0.063631 -0.69309,
						0.400466 -0.186508 -0.231209,
						0 -0.186508 -0.462418,
						-0.400466 0.314315 -0.231209,
						-0.131995 0.063711 -0.691041,
						-0.532461 0.063711 -0.459831,
						-0.400466 -0.186508 -0.231209,
						-0.400466 0.314315 0.231209,
						-0.664456 0.063904 -0.231209,
						-0.664456 0.063904 0.231209,
						-0.400466 -0.186508 0.231209,
						0 0.314315 0.462419,
						-0.532461 0.063726 0.459831,
						-0.131995 0.063726 0.691041,
						0 -0.186508 0.462419,
						0.400466 0.314315 0.231209,
						0.131995 0.063904 0.691041,
						0.532461 0.063904 0.459831,
						0.400466 -0.186508 0.231209,
						0.664456 0.063904 -0.231209,
						0.664456 0.063904 0.231209
					]
				}
				coordIndex [
					0, 1, 2, 3, -1,
					4, 5, 3, 2, -1,
					0, 3, 5, -1,
					4, 2, 1, -1,
					6, 0, 7, 8, -1,
					5, 7, 0, -1,
					5, 9, 8, 7, -1,
					6, 8, 9, -1,
					10, 6, 11, 12, -1,
					9, 11, 6, -1,
					9, 13, 12, 11, -1,
					10, 12, 13, -1,
					14, 10, 15, 16, -1,
					13, 15, 10, -1,
					13, 17, 16, 15, -1,
					14, 16, 17, -1,
					18, 14, 19, 20, -1,
					17, 19, 14, -1,
					17, 21, 20, 19, -1,
					18, 20, 21, -1,
					22, 4, 1, -1,
					1, 18, 23, 22, -1,
					21, 23, 18, -1,
					21, 4, 22, 23, -1,
					13, 21, 17, -1,
					13, 4, 21, -1,
					9, 4, 13, -1,
					5, 4, 9, -1,
					10, 14, 18, -1,
					10, 18, 1, -1,
					6, 10, 1, -1,
					6, 1, 0, -1
				]
				normalPerVertex FALSE
				solid           FALSE
				creaseAngle     0.5
			}
		}
	]
}
