#VRML V2.0 utf8

# This file is converted using vrml1to2 version 1.6
# This converter is based on Final VRML2.0 - August 4, 1996.
# This converter is provided by Sony.

Transform {
	children [
		Shape {
			appearance Appearance {
				material Material {
					diffuseColor  1 1 1
					specularColor 1 1 1
				}
			}
			geometry IndexedFaceSet {
				coord Coordinate {
					point [
						-0.272222 0.23 0.112441,
						-0.410957 0.23 -0.000193,
						-0.410957 -0.23 -0.000193,
						-0.272222 -0.23 0.112441,
						0.023023 0.229787 0.112444,
						0.02316 -0.23 0.112441,
						-0.272222 -0.23 -0.112828,
						0.02316 -0.23 -0.112828,
						-0.272222 0.23 -0.112828,
						0.023296 0.229787 -0.112872,
						0.02316 -0.229781 -0.000214,
						0.111325 -0.229781 -0.070349,
						0.133024 -0.229781 -0.02515,
						0.02316 0.229787 -0.000214,
						0.133024 0.229787 -0.02515,
						0.111325 0.229787 -0.070349,
						0.132963 -0.229781 0.024988,
						0.132963 0.229787 0.024988,
						0.111155 -0.229781 0.070134,
						0.111155 0.229787 0.070134,
						0.071918 -0.229781 0.101347,
						0.071918 0.229787 0.101347,
						0.072163 -0.229781 -0.101656,
						0.072163 0.229787 -0.101656
					]
				}
				coordIndex [
					0, 1, 2, 3, -1,
					4, 0, 3, 5, -1,
					3, 6, 7, 5, -1,
					8, 0, 4, 9, -1,
					2, 6, 3, -1,
					0, 8, 1, -1,
					2, 1, 8, 6, -1,
					6, 8, 9, 7, -1,
					10, 11, 12, -1,
					13, 14, 15, -1,
					10, 12, 16, -1,
					13, 17, 14, -1,
					10, 16, 18, -1,
					13, 19, 17, -1,
					10, 18, 20, -1,
					13, 21, 19, -1,
					10, 20, 5, -1,
					13, 4, 21, -1,
					10, 7, 22, -1,
					13, 23, 9, -1,
					10, 22, 11, -1,
					13, 15, 23, -1,
					11, 15, 14, 12, -1,
					12, 14, 17, 16, -1,
					16, 17, 19, 18, -1,
					18, 19, 21, 20, -1,
					20, 21, 4, 5, -1,
					7, 9, 23, 22, -1,
					22, 23, 15, 11, -1
				]
				normalPerVertex FALSE
				solid           FALSE
				creaseAngle     0.5
			}
		}
	]
}
