#VRML V2.0 utf8

# This file is converted using vrml1to2 version 1.6
# This converter is based on Final VRML2.0 - August 4, 1996.
# This converter is provided by Sony.

Transform {
	children [
		Shape {
			appearance Appearance {
				material Material {
					diffuseColor  1 1 1
					specularColor 1 1 1
				}
			}
			geometry IndexedFaceSet {
				coord Coordinate {
					point [
						-0.423441 -0.331768 0,
						-0.610883 0.007469 -0.32466,
						0.024278 0.007469 -0.69137,
						0.21172 -0.331768 -0.36671,
						0.21172 0.353886 -0.36671,
						-0.423441 0.353886 0,
						0.21172 -0.331768 0.36671,
						0.02258 0.011059 0.69431,
						-0.61258 0.011059 0.3276,
						0.21172 0.353886 0.36671,
						0.59 0.008693 -0.36671,
						0.59 0.008693 0.36671
					]
				}
				coordIndex [
					0, 1, 2, 3, -1,
					4, 2, 1, 5, -1,
					0, 5, 1, -1,
					4, 3, 2, -1,
					6, 7, 8, 0, -1,
					5, 0, 8, -1,
					5, 8, 7, 9, -1,
					6, 9, 7, -1,
					3, 4, 10, -1,
					3, 10, 11, 6, -1,
					9, 6, 11, -1,
					10, 4, 9, 11, -1,
					9, 4, 5, -1,
					0, 3, 6, -1
				]
				normalPerVertex FALSE
				solid           FALSE
				creaseAngle     0.5
			}
		}
	]
}
