#VRML V2.0 utf8

# This file is converted using vrml1to2 version 1.6
# This converter is based on Final VRML2.0 - August 4, 1996.
# This converter is provided by Sony.

Transform {
	children [
		Shape {
			appearance Appearance {
				material Material {
					diffuseColor  1 1 1
					specularColor 1 1 1
				}
			}
			geometry IndexedFaceSet {
				coord Coordinate {
					point [
						0 -0.000576 -1,
						2 1 -1,
						2 -1 -1,
						2.98493 0.988374 -1,
						3 -1 -1,
						3.59314 -0.790753 -1,
						3.59314 -0.790753 1,
						3 -1 1,
						3.56876 0.808469 -1,
						2.98493 0.988374 1,
						3.56876 0.808469 1,
						3.94466 -0.291092 -1,
						3.94466 -0.291092 1,
						3.93534 0.319756 -1,
						3.93534 0.319756 1,
						2 1 1,
						2 -1 1,
						0 -0.000576 1
					]
				}
				coordIndex [
					0, 1, 2, -1,
					1, 3, 4, 2, -1,
					4, 5, 6, 7, -1,
					8, 3, 9, 10, -1,
					5, 11, 12, 6, -1,
					13, 14, 12, 11, -1,
					8, 10, 14, 13, -1,
					1, 15, 9, 3, -1,
					4, 7, 16, 2, -1,
					2, 16, 17, 0, -1,
					15, 1, 0, 17, -1,
					16, 15, 17, -1,
					15, 16, 7, 9, -1,
					7, 10, 9, -1,
					7, 14, 10, -1,
					7, 12, 14, -1,
					7, 6, 12, -1,
					4, 3, 8, -1,
					4, 8, 13, -1,
					4, 13, 11, -1,
					4, 11, 5, -1
				]
				normalPerVertex FALSE
				solid           FALSE
				creaseAngle     0.5
			}
		}
	]
}
