#VRML V2.0 utf8

# This file is converted using vrml1to2 version 1.6
# This converter is based on Final VRML2.0 - August 4, 1996.
# This converter is provided by Sony.

Transform {
	children [
		Shape {
			appearance Appearance {
				material Material {
					diffuseColor  0.866 0.866 0.866
					specularColor 1 1 1
				}
			}
			geometry IndexedFaceSet {
				coord Coordinate {
					point [
						0 1 1,
						-1 0 1,
						0 -1 1,
						0 1 -1,
						-1 0 -1,
						0 -1 -1,
						1 -1 0,
						1 1 0
					]
				}
				coordIndex [
					0, 1, 2, -1,
					1, 0, 3, 4, -1,
					2, 1, 4, 5, -1,
					3, 5, 4, -1,
					5, 6, 2, -1,
					5, 7, 6, -1,
					5, 3, 7, -1,
					3, 0, 7, -1,
					6, 0, 2, -1,
					7, 0, 6, -1
				]
				normalPerVertex FALSE
				solid           FALSE
				creaseAngle     0.5
			}
		}
	]
}
