#VRML V2.0 utf8

# This file is converted using vrml1to2 version 1.6
# This converter is based on Final VRML2.0 - August 4, 1996.
# This converter is provided by Sony.

Transform {
	children [
		Shape {
			appearance Appearance {
				material Material {
					diffuseColor  1 1 1
					specularColor 1 1 1
				}
			}
			geometry IndexedFaceSet {
				coord Coordinate {
					point [
						0.509644 -0.23 1.38079,
						0.509643 0.23 1.38079,
						0.786984 0.23 1.6903,
						0.786985 -0.23 1.6903,
						0.509643 -0.23 2.00005,
						0.509644 0.23 2.00005,
						0.79 0.23 -1.69011,
						0.509643 0.23 -1.99964,
						0.509643 0.23 -1.38038,
						0.509643 -0.23 -1.99964,
						0.79 -0.23 -1.69011,
						0.509644 -0.23 -0.308463,
						0.509643 0.23 -0.308463,
						0.786984 0.23 0.001045,
						0.786985 -0.23 0.001045,
						0.509643 -0.23 0.310794,
						0.509644 0.23 0.310794,
						-0.509644 -0.23 -1.38093,
						-0.509643 0.23 -1.38093,
						-0.786984 0.23 -1.69044,
						-0.786984 -0.23 -1.69044,
						-0.509643 -0.23 -2.00019,
						-0.509643 0.23 -2.00019,
						-0.79 0.23 1.68997,
						-0.509644 0.23 1.9995,
						-0.509643 0.23 1.38024,
						-0.509644 -0.23 1.9995,
						-0.79 -0.23 1.68997,
						-0.509644 -0.23 0.308463,
						-0.509643 0.23 0.308463,
						-0.786984 0.23 -0.001046,
						-0.786985 -0.23 -0.001046,
						-0.509643 -0.23 -0.310794,
						-0.509644 0.23 -0.310794,
						0.509643 -0.23 -1.38038,
						-0.509643 -0.23 1.38024
					]
				}
				coordIndex [
					0, 1, 2, 3, -1,
					0, 3, 4, -1,
					1, 5, 2, -1,
					5, 4, 3, 2, -1,
					6, 7, 8, -1,
					9, 7, 6, 10, -1,
					11, 12, 13, 14, -1,
					11, 14, 15, -1,
					12, 16, 13, -1,
					16, 15, 14, 13, -1,
					17, 18, 19, 20, -1,
					17, 20, 21, -1,
					18, 22, 19, -1,
					22, 21, 20, 19, -1,
					23, 24, 25, -1,
					26, 24, 23, 27, -1,
					28, 29, 30, 31, -1,
					28, 31, 32, -1,
					29, 33, 30, -1,
					33, 32, 31, 30, -1,
					9, 4, 26, 21, -1,
					7, 22, 24, 5, -1,
					5, 24, 26, 4, -1,
					7, 9, 21, 22, -1,
					9, 10, 34, -1,
					34, 10, 6, 8, -1,
					27, 35, 26, -1,
					23, 25, 35, 27, -1,
					1, 0, 15, 16, -1,
					34, 8, 12, 11, -1,
					33, 18, 17, 32, -1,
					29, 28, 35, 25, -1
				]
				normalPerVertex FALSE
				solid           FALSE
				creaseAngle     0.5
			}
		}
	]
}
