#VRML V2.0 utf8

# This file is converted using vrml1to2 version 1.6
# This converter is based on Final VRML2.0 - August 4, 1996.
# This converter is provided by Sony.

Transform {
	children [
		Shape {
			appearance Appearance {
				material Material {
					diffuseColor  1 1 1
					specularColor 1 1 1
				}
			}
			geometry IndexedFaceSet {
				coord Coordinate {
					point [
						-0.272222 0.23 0.112441,
						-0.410957 0.23 -0.000193,
						-0.410957 -0.23 -0.000193,
						-0.272222 -0.23 0.112441,
						0.268778 0.23 0.112441,
						0.268778 -0.23 0.112441,
						0.410957 -0.23 -0.000252,
						0.410957 0.23 -0.000252,
						0.268778 -0.23 -0.112828,
						0.268778 0.23 -0.112828,
						-0.272222 -0.23 -0.112828,
						-0.272222 0.23 -0.112828
					]
				}
				coordIndex [
					0, 1, 2, 3, -1,
					4, 0, 3, 5, -1,
					5, 6, 7, 4, -1,
					5, 8, 6, -1,
					7, 9, 4, -1,
					3, 10, 8, 5, -1,
					11, 0, 4, 9, -1,
					2, 10, 3, -1,
					0, 11, 1, -1,
					2, 1, 11, 10, -1,
					10, 11, 9, 8, -1,
					8, 9, 7, 6, -1
				]
				normalPerVertex FALSE
				solid           FALSE
				creaseAngle     0.5
			}
		}
	]
}
